<svg xmlns="http://www.w3.org/2000/svg" viewBox="0 0 175.95 177.21"><defs><style>.cls-1{fill:#4b3205;}</style></defs><g id="Layer_2" data-name="Layer 2"><g id="Corner_Frames" data-name="Corner Frames"><path class="cls-1" d="M152,37.27c.5,8.54,3.65,16.82,10.18,22.65,2.88,2.57,8,6,11.49,2.78,2.17-2,2.64-6.21,2.15-8.88-2-10.8-12.29-16.25-22.2-19.53,0-1.14,0-2.28,0-3.38a51.1,51.1,0,0,1,1.56-9.07c5.77-1.71,15-5.36,10-11.06-5.71-5-9.36,4.25-11.07,10A53,53,0,0,1,145,22.36c-1.11.05-2.24.06-3.39,0-3.27-9.91-8.73-20.23-19.52-22.2-2.68-.49-6.92,0-8.88,2.14-3.17,3.51.21,8.61,2.78,11.5,5.82,6.53,14.11,9.68,22.64,10.18q1.16,3.38,2.11,6.84c-5.27-1.22-10.59-2.28-15.89-3.39a61,61,0,0,0-12.73-15.22c-6-5-18.84-11.16-26.54-7.23-6.07,3.1.93,11,3.5,13.36,8.56,7.79,21.8,9.46,32.65,11.65l.18,0c2.25,3.52,4.31,7.12,6.23,10.51l.34.62C117.39,36.42,106,32.11,96.58,26.1c-.88-.56-1.47.35-.76.81C107,34,119.1,39.08,130.72,45.22,136.87,56.85,141.94,69,149,80.13c.45.7,1.36.11.81-.76-6-9.43-10.33-20.81-15.08-31.95l.63.35c3.39,1.92,7,4,10.5,6.23,0,.06,0,.12,0,.17,2.19,10.86,3.86,24.09,11.64,32.65,2.34,2.57,10.26,9.57,13.36,3.51,3.94-7.71-2.26-20.58-7.23-26.54a61,61,0,0,0-15.22-12.73c-1.1-5.3-2.17-10.62-3.39-15.89C147.41,35.81,149.7,36.5,152,37.27ZM158,39.6c5.3,2.28,10.4,5.62,13.78,10.36,2.45,3.44,4,12.06-2.58,10.39-3.73-1-6.89-4.23-9.3-7.07-3.55-4.18-5.42-9.76-6.09-15.34C155.26,38.46,156.66,39,158,39.6Zm4.81-26.5c1.93,3.42-2.35,5.8-7.28,7.29C157.05,15.45,159.43,11.18,162.84,13.1ZM122.67,16c-2.84-2.41-6.12-5.56-7.07-9.3-1.68-6.59,7-5,10.39-2.57,4.73,3.38,8.07,8.48,10.35,13.77.59,1.38,1.14,2.78,1.66,4.19C132.43,21.43,126.85,19.57,122.67,16Zm20.86,12.75c-.4-1.51-.84-3.09-1.34-4.69a44.23,44.23,0,0,0,9.75-1.35l1.75-.46c-.19.69-.34,1.29-.46,1.75a43.48,43.48,0,0,0-1.35,9.74q-2.41-.73-4.7-1.34l-2.92-.73C144,30.71,143.79,29.73,143.53,28.76Zm-39.09-6.3c-6.48-2-12.45-5.08-17-10.17-2.81-3.12-2.63-4.83,1.92-4.9a29.37,29.37,0,0,1,11,2.25c7.88,3,14,9.46,19,16.65C114.38,25.18,109.36,24,104.44,22.46Zm61.87,53.12a29.31,29.31,0,0,1,2.24,11c-.06,4.56-1.77,4.73-4.9,1.93-5.09-4.57-8.18-10.53-10.16-17-1.51-4.93-2.72-9.94-3.83-15C156.85,61.59,163.26,67.7,166.31,75.58ZM144.9,49c-3.86-2.14-7.9-4.06-12-5.89-1.83-4.12-3.76-8.17-5.89-12,4.87,1,9.81,2,14.69,3.22C142.91,39.14,143.92,44.09,144.9,49Z"/><path class="cls-1" d="M154.15,90.35c3.42,6.12,8.46,11.39,15,14.06l-.74-1.74v72.1c0,3.12,1.85,3.34,1.85-.15v-73c0-.62-.11-1.48-.75-1.74-6.15-2.51-10.43-7.38-14.36-12.56-1.08-1.41-2.58.59-1,3Z"/><path class="cls-1" d="M86.82,23c-6.12-3.41-11.38-8.46-14-15l1.73.75H2.4c-3.12,0-3.34-1.85.16-1.85h73c.61,0,1.47.1,1.74.74C79.81,13.8,84.68,18.09,89.86,22c1.41,1.07-.58,2.57-3,1Z"/><path class="cls-1" d="M72.09,12.46H2.4c-3.12,0-3.34-1.29.16-1.29h69A6.22,6.22,0,0,0,72.09,12.46Z"/><path class="cls-1" d="M164.82,105.12v69.69c0,3.12,1.3,3.34,1.3-.15v-69A6.14,6.14,0,0,1,164.82,105.12Z"/></g></g></svg>